{
  "asset":{
    "generator":"Khronos glTF Blender I/O v4.0.44",
    "version":"2.0"
  },
  "scene":0,
  "scenes":[
    {
      "name":"Scene",
      "nodes":[
        0
      ]
    }
  ],
  "nodes":[
    {
      "mesh":0,
      "name":"Jeep"
    }
  ],
  "materials":[
    {
      "doubleSided":true,
      "name":"DarkGreen_Jeep.002",
      "pbrMetallicRoughness":{
        "baseColorFactor":[
          0.696253776550293,
          0,
          0.42290908098220825,
          1
        ],
        "metallicFactor":0,
        "roughnessFactor":0.5
      }
    },
    {
      "doubleSided":true,
      "name":"White_Jeep.002",
      "pbrMetallicRoughness":{
        "baseColorFactor":[
          1,
          0.9202678203582764,
          0.8966922760009766,
          1
        ],
        "metallicFactor":0,
        "roughnessFactor":0.5
      }
    },
    {
      "doubleSided":true,
      "name":"Black_Jeep.002",
      "pbrMetallicRoughness":{
        "baseColorFactor":[
          1,
          1,
          1,
          1
        ],
        "metallicFactor":0,
        "roughnessFactor":0.5
      }
    },
    {
      "doubleSided":true,
      "name":"DarkBlue_Jeep.002",
      "pbrMetallicRoughness":{
        "baseColorFactor":[
          0.002194299129769206,
          0.18236075341701508,
          1,
          1
        ],
        "metallicFactor":0,
        "roughnessFactor":0.5
      }
    },
    {
      "doubleSided":true,
      "name":"GasTank_Jeep.002",
      "pbrMetallicRoughness":{
        "baseColorFactor":[
          0.20863692462444305,
          0.010329825803637505,
          0.0027317421045154333,
          1
        ],
        "metallicFactor":0,
        "roughnessFactor":0.5
      }
    },
    {
      "doubleSided":true,
      "name":"Orange_Jeep.002",
      "pbrMetallicRoughness":{
        "baseColorFactor":[
          0.5647115707397461,
          0.09305897355079651,
          0,
          1
        ],
        "metallicFactor":0,
        "roughnessFactor":0.5
      }
    },
    {
      "doubleSided":true,
      "name":"Windows_Jeep.002",
      "pbrMetallicRoughness":{
        "baseColorFactor":[
          0.5332764983177185,
          0.8227859139442444,
          1,
          1
        ],
        "metallicFactor":0,
        "roughnessFactor":0.5
      }
    },
    {
      "doubleSided":true,
      "name":"LightGreen_Jeep.002",
      "pbrMetallicRoughness":{
        "baseColorFactor":[
          1,
          1,
          1,
          1
        ],
        "metallicFactor":0,
        "roughnessFactor":0.5
      }
    }
  ],
  "meshes":[
    {
      "name":"Cube.001",
      "primitives":[
        {
          "attributes":{
            "POSITION":0,
            "NORMAL":1,
            "TEXCOORD_0":2
          },
          "indices":3,
          "material":0
        },
        {
          "attributes":{
            "POSITION":4,
            "NORMAL":5,
            "TEXCOORD_0":6
          },
          "indices":7,
          "material":1
        },
        {
          "attributes":{
            "POSITION":8,
            "NORMAL":9,
            "TEXCOORD_0":10
          },
          "indices":11,
          "material":2
        },
        {
          "attributes":{
            "POSITION":12,
            "NORMAL":13,
            "TEXCOORD_0":14
          },
          "indices":15,
          "material":3
        },
        {
          "attributes":{
            "POSITION":16,
            "NORMAL":17,
            "TEXCOORD_0":18
          },
          "indices":19,
          "material":4
        },
        {
          "attributes":{
            "POSITION":20,
            "NORMAL":21,
            "TEXCOORD_0":22
          },
          "indices":23,
          "material":5
        },
        {
          "attributes":{
            "POSITION":24,
            "NORMAL":25,
            "TEXCOORD_0":26
          },
          "indices":27,
          "material":6
        },
        {
          "attributes":{
            "POSITION":28,
            "NORMAL":29,
            "TEXCOORD_0":30
          },
          "indices":31,
          "material":7
        }
      ]
    }
  ],
  "accessors":[
    {
      "bufferView":0,
      "componentType":5126,
      "count":869,
      "max":[
        1.0693190097808838,
        1.5017895698547363,
        2.3420238494873047
      ],
      "min":[
        -0.9701478481292725,
        -0.3586813509464264,
        -1.8841466903686523
      ],
      "type":"VEC3"
    },
    {
      "bufferView":1,
      "componentType":5126,
      "count":869,
      "type":"VEC3"
    },
    {
      "bufferView":2,
      "componentType":5126,
      "count":869,
      "type":"VEC2"
    },
    {
      "bufferView":3,
      "componentType":5123,
      "count":1710,
      "type":"SCALAR"
    },
    {
      "bufferView":4,
      "componentType":5126,
      "count":16,
      "max":[
        0.6289761066436768,
        0.4667852818965912,
        2.242450714111328
      ],
      "min":[
        -0.5298049449920654,
        0.2949724793434143,
        2.242450714111328
      ],
      "type":"VEC3"
    },
    {
      "bufferView":5,
      "componentType":5126,
      "count":16,
      "type":"VEC3"
    },
    {
      "bufferView":6,
      "componentType":5126,
      "count":16,
      "type":"VEC2"
    },
    {
      "bufferView":7,
      "componentType":5123,
      "count":36,
      "type":"SCALAR"
    },
    {
      "bufferView":8,
      "componentType":5126,
      "count":636,
      "max":[
        0.9167494177818298,
        1.3706998825073242,
        2.255279779434204
      ],
      "min":[
        -0.7945712208747864,
        -0.3618374764919281,
        -2.1347546577453613
      ],
      "type":"VEC3"
    },
    {
      "bufferView":9,
      "componentType":5126,
      "count":636,
      "type":"VEC3"
    },
    {
      "bufferView":10,
      "componentType":5126,
      "count":636,
      "type":"VEC2"
    },
    {
      "bufferView":11,
      "componentType":5123,
      "count":1140,
      "type":"SCALAR"
    },
    {
      "bufferView":12,
      "componentType":5126,
      "count":250,
      "max":[
        0.2927742004394531,
        0.8933559060096741,
        -1.887830376625061
      ],
      "min":[
        -0.6795411705970764,
        -0.03137093782424927,
        -2.214371681213379
      ],
      "type":"VEC3"
    },
    {
      "bufferView":13,
      "componentType":5126,
      "count":250,
      "type":"VEC3"
    },
    {
      "bufferView":14,
      "componentType":5126,
      "count":250,
      "type":"VEC2"
    },
    {
      "bufferView":15,
      "componentType":5123,
      "count":444,
      "type":"SCALAR"
    },
    {
      "bufferView":16,
      "componentType":5126,
      "count":34,
      "max":[
        0.6774653196334839,
        0.6228743195533752,
        -1.8657864332199097
      ],
      "min":[
        0.3170062005519867,
        0.11403419077396393,
        -1.9992867708206177
      ],
      "type":"VEC3"
    },
    {
      "bufferView":17,
      "componentType":5126,
      "count":34,
      "type":"VEC3"
    },
    {
      "bufferView":18,
      "componentType":5126,
      "count":34,
      "type":"VEC2"
    },
    {
      "bufferView":19,
      "componentType":5123,
      "count":60,
      "type":"SCALAR"
    },
    {
      "bufferView":20,
      "componentType":5126,
      "count":48,
      "max":[
        1.0316749811172485,
        0.24411049485206604,
        -1.7818353176116943
      ],
      "min":[
        -0.9239671230316162,
        -0.08479133248329163,
        -1.907345175743103
      ],
      "type":"VEC3"
    },
    {
      "bufferView":21,
      "componentType":5126,
      "count":48,
      "type":"VEC3"
    },
    {
      "bufferView":22,
      "componentType":5126,
      "count":48,
      "type":"VEC2"
    },
    {
      "bufferView":23,
      "componentType":5123,
      "count":72,
      "type":"SCALAR"
    },
    {
      "bufferView":24,
      "componentType":5126,
      "count":8,
      "max":[
        0.8014922142028809,
        1.2990057468414307,
        0.9469717741012573
      ],
      "min":[
        -0.6793138384819031,
        0.6574698090553284,
        0.6027226448059082
      ],
      "type":"VEC3"
    },
    {
      "bufferView":25,
      "componentType":5126,
      "count":8,
      "type":"VEC3"
    },
    {
      "bufferView":26,
      "componentType":5126,
      "count":8,
      "type":"VEC2"
    },
    {
      "bufferView":27,
      "componentType":5123,
      "count":12,
      "type":"SCALAR"
    },
    {
      "bufferView":28,
      "componentType":5126,
      "count":240,
      "max":[
        0.5719553232192993,
        0.9328113198280334,
        0.014440408907830715
      ],
      "min":[
        -0.585089385509491,
        -0.09837976098060608,
        -0.6573660373687744
      ],
      "type":"VEC3"
    },
    {
      "bufferView":29,
      "componentType":5126,
      "count":240,
      "type":"VEC3"
    },
    {
      "bufferView":30,
      "componentType":5126,
      "count":240,
      "type":"VEC2"
    },
    {
      "bufferView":31,
      "componentType":5123,
      "count":360,
      "type":"SCALAR"
    }
  ],
  "bufferViews":[
    {
      "buffer":0,
      "byteLength":10428,
      "byteOffset":0,
      "target":34962
    },
    {
      "buffer":0,
      "byteLength":10428,
      "byteOffset":10428,
      "target":34962
    },
    {
      "buffer":0,
      "byteLength":6952,
      "byteOffset":20856,
      "target":34962
    },
    {
      "buffer":0,
      "byteLength":3420,
      "byteOffset":27808,
      "target":34963
    },
    {
      "buffer":0,
      "byteLength":192,
      "byteOffset":31228,
      "target":34962
    },
    {
      "buffer":0,
      "byteLength":192,
      "byteOffset":31420,
      "target":34962
    },
    {
      "buffer":0,
      "byteLength":128,
      "byteOffset":31612,
      "target":34962
    },
    {
      "buffer":0,
      "byteLength":72,
      "byteOffset":31740,
      "target":34963
    },
    {
      "buffer":0,
      "byteLength":7632,
      "byteOffset":31812,
      "target":34962
    },
    {
      "buffer":0,
      "byteLength":7632,
      "byteOffset":39444,
      "target":34962
    },
    {
      "buffer":0,
      "byteLength":5088,
      "byteOffset":47076,
      "target":34962
    },
    {
      "buffer":0,
      "byteLength":2280,
      "byteOffset":52164,
      "target":34963
    },
    {
      "buffer":0,
      "byteLength":3000,
      "byteOffset":54444,
      "target":34962
    },
    {
      "buffer":0,
      "byteLength":3000,
      "byteOffset":57444,
      "target":34962
    },
    {
      "buffer":0,
      "byteLength":2000,
      "byteOffset":60444,
      "target":34962
    },
    {
      "buffer":0,
      "byteLength":888,
      "byteOffset":62444,
      "target":34963
    },
    {
      "buffer":0,
      "byteLength":408,
      "byteOffset":63332,
      "target":34962
    },
    {
      "buffer":0,
      "byteLength":408,
      "byteOffset":63740,
      "target":34962
    },
    {
      "buffer":0,
      "byteLength":272,
      "byteOffset":64148,
      "target":34962
    },
    {
      "buffer":0,
      "byteLength":120,
      "byteOffset":64420,
      "target":34963
    },
    {
      "buffer":0,
      "byteLength":576,
      "byteOffset":64540,
      "target":34962
    },
    {
      "buffer":0,
      "byteLength":576,
      "byteOffset":65116,
      "target":34962
    },
    {
      "buffer":0,
      "byteLength":384,
      "byteOffset":65692,
      "target":34962
    },
    {
      "buffer":0,
      "byteLength":144,
      "byteOffset":66076,
      "target":34963
    },
    {
      "buffer":0,
      "byteLength":96,
      "byteOffset":66220,
      "target":34962
    },
    {
      "buffer":0,
      "byteLength":96,
      "byteOffset":66316,
      "target":34962
    },
    {
      "buffer":0,
      "byteLength":64,
      "byteOffset":66412,
      "target":34962
    },
    {
      "buffer":0,
      "byteLength":24,
      "byteOffset":66476,
      "target":34963
    },
    {
      "buffer":0,
      "byteLength":2880,
      "byteOffset":66500,
      "target":34962
    },
    {
      "buffer":0,
      "byteLength":2880,
      "byteOffset":69380,
      "target":34962
    },
    {
      "buffer":0,
      "byteLength":1920,
      "byteOffset":72260,
      "target":34962
    },
    {
      "buffer":0,
      "byteLength":720,
      "byteOffset":74180,
      "target":34963
    }
  ],
  "buffers":[
    {
      "byteLength":74900,
      "uri":"jeep.bin"
    }
  ]
}
