{
	"asset":{
		"generator":"Khronos glTF Blender I/O v4.0.44",
		"version":"2.0"
	},
	"scene":0,
	"scenes":[
		{
			"name":"Scene",
			"nodes":[
				0
			]
		}
	],
	"nodes":[
		{
			"mesh":0,
			"name":"Jeep"
		}
	],
	"materials":[
		{
			"doubleSided":true,
			"name":"DarkGreen_Jeep.002",
			"pbrMetallicRoughness":{
				"baseColorFactor":[
					0.9490517377853394,
					0,
					0.5736466646194458,
					1
				],
				"metallicFactor":0,
				"roughnessFactor":0.5
			}
		},
		{
			"doubleSided":true,
			"name":"White_Jeep.002",
			"pbrMetallicRoughness":{
				"baseColorFactor":[
					0.4626750349998474,
					0.4626750349998474,
					0.4626750349998474,
					1
				],
				"metallicFactor":0,
				"roughnessFactor":0.5
			}
		},
		{
			"doubleSided":true,
			"name":"Black_Jeep.002",
			"pbrMetallicRoughness":{
				"baseColorFactor":[
					1,
					1,
					1,
					1
				],
				"metallicFactor":0,
				"roughnessFactor":0.5
			}
		},
		{
			"doubleSided":true,
			"name":"DarkBlue_Jeep.002",
			"pbrMetallicRoughness":{
				"baseColorFactor":[
					0.002194299129769206,
					0.18236075341701508,
					1,
					1
				],
				"metallicFactor":0,
				"roughnessFactor":0.5
			}
		},
		{
			"doubleSided":true,
			"name":"GasTank_Jeep.002",
			"pbrMetallicRoughness":{
				"baseColorFactor":[
					0.20863692462444305,
					0.010329825803637505,
					0.0027317421045154333,
					1
				],
				"metallicFactor":0,
				"roughnessFactor":0.5
			}
		},
		{
			"doubleSided":true,
			"name":"Orange_Jeep.002",
			"pbrMetallicRoughness":{
				"baseColorFactor":[
					0.5647115707397461,
					0.09305897355079651,
					0,
					1
				],
				"metallicFactor":0,
				"roughnessFactor":0.5
			}
		},
		{
			"doubleSided":true,
			"name":"Windows_Jeep.002",
			"pbrMetallicRoughness":{
				"baseColorFactor":[
					0.5332764983177185,
					0.8227859139442444,
					1,
					1
				],
				"metallicFactor":0,
				"roughnessFactor":0.5
			}
		},
		{
			"doubleSided":true,
			"name":"LightGreen_Jeep.002",
			"pbrMetallicRoughness":{
				"baseColorFactor":[
					1,
					1,
					1,
					1
				],
				"metallicFactor":0,
				"roughnessFactor":0.5
			}
		}
	],
	"meshes":[
		{
			"name":"Cube.001",
			"primitives":[
				{
					"attributes":{
						"POSITION":0,
						"NORMAL":1,
						"TEXCOORD_0":2
					},
					"indices":3,
					"material":0
				},
				{
					"attributes":{
						"POSITION":4,
						"NORMAL":5,
						"TEXCOORD_0":6
					},
					"indices":7,
					"material":1
				},
				{
					"attributes":{
						"POSITION":8,
						"NORMAL":9,
						"TEXCOORD_0":10
					},
					"indices":11,
					"material":2
				},
				{
					"attributes":{
						"POSITION":12,
						"NORMAL":13,
						"TEXCOORD_0":14
					},
					"indices":15,
					"material":3
				},
				{
					"attributes":{
						"POSITION":16,
						"NORMAL":17,
						"TEXCOORD_0":18
					},
					"indices":19,
					"material":4
				},
				{
					"attributes":{
						"POSITION":20,
						"NORMAL":21,
						"TEXCOORD_0":22
					},
					"indices":23,
					"material":5
				},
				{
					"attributes":{
						"POSITION":24,
						"NORMAL":25,
						"TEXCOORD_0":26
					},
					"indices":27,
					"material":6
				},
				{
					"attributes":{
						"POSITION":28,
						"NORMAL":29,
						"TEXCOORD_0":30
					},
					"indices":31,
					"material":7
				}
			]
		}
	],
	"accessors":[
		{
			"bufferView":0,
			"componentType":5126,
			"count":869,
			"max":[
				1.0693190097808838,
				1.3377405405044556,
				2.3420238494873047
			],
			"min":[
				-0.9701478481292725,
				-0.5227304100990295,
				-1.8841466903686523
			],
			"type":"VEC3"
		},
		{
			"bufferView":1,
			"componentType":5126,
			"count":869,
			"type":"VEC3"
		},
		{
			"bufferView":2,
			"componentType":5126,
			"count":869,
			"type":"VEC2"
		},
		{
			"bufferView":3,
			"componentType":5123,
			"count":1710,
			"type":"SCALAR"
		},
		{
			"bufferView":4,
			"componentType":5126,
			"count":16,
			"max":[
				0.6289761066436768,
				0.30273622274398804,
				2.242450714111328
			],
			"min":[
				-0.5298049449920654,
				0.13092342019081116,
				2.242450714111328
			],
			"type":"VEC3"
		},
		{
			"bufferView":5,
			"componentType":5126,
			"count":16,
			"type":"VEC3"
		},
		{
			"bufferView":6,
			"componentType":5126,
			"count":16,
			"type":"VEC2"
		},
		{
			"bufferView":7,
			"componentType":5123,
			"count":36,
			"type":"SCALAR"
		},
		{
			"bufferView":8,
			"componentType":5126,
			"count":748,
			"max":[
				0.9399160146713257,
				1.2066508531570435,
				2.255279779434204
			],
			"min":[
				-0.8407443761825562,
				-0.724804162979126,
				-2.1347546577453613
			],
			"type":"VEC3"
		},
		{
			"bufferView":9,
			"componentType":5126,
			"count":748,
			"type":"VEC3"
		},
		{
			"bufferView":10,
			"componentType":5126,
			"count":748,
			"type":"VEC2"
		},
		{
			"bufferView":11,
			"componentType":5123,
			"count":1356,
			"type":"SCALAR"
		},
		{
			"bufferView":12,
			"componentType":5126,
			"count":1250,
			"max":[
				1.0195329189300537,
				0.7293068766593933,
				2.2138915061950684
			],
			"min":[
				-0.920361340045929,
				-0.9921949505805969,
				-2.214371681213379
			],
			"type":"VEC3"
		},
		{
			"bufferView":13,
			"componentType":5126,
			"count":1250,
			"type":"VEC3"
		},
		{
			"bufferView":14,
			"componentType":5126,
			"count":1250,
			"type":"VEC2"
		},
		{
			"bufferView":15,
			"componentType":5123,
			"count":2220,
			"type":"SCALAR"
		},
		{
			"bufferView":16,
			"componentType":5126,
			"count":34,
			"max":[
				0.6774653196334839,
				0.4588252007961273,
				-1.8657864332199097
			],
			"min":[
				0.3170062005519867,
				-0.05001486837863922,
				-1.9992867708206177
			],
			"type":"VEC3"
		},
		{
			"bufferView":17,
			"componentType":5126,
			"count":34,
			"type":"VEC3"
		},
		{
			"bufferView":18,
			"componentType":5126,
			"count":34,
			"type":"VEC2"
		},
		{
			"bufferView":19,
			"componentType":5123,
			"count":60,
			"type":"SCALAR"
		},
		{
			"bufferView":20,
			"componentType":5126,
			"count":48,
			"max":[
				1.0316749811172485,
				0.08006143569946289,
				-1.7818353176116943
			],
			"min":[
				-0.9239671230316162,
				-0.24884039163589478,
				-1.907345175743103
			],
			"type":"VEC3"
		},
		{
			"bufferView":21,
			"componentType":5126,
			"count":48,
			"type":"VEC3"
		},
		{
			"bufferView":22,
			"componentType":5126,
			"count":48,
			"type":"VEC2"
		},
		{
			"bufferView":23,
			"componentType":5123,
			"count":72,
			"type":"SCALAR"
		},
		{
			"bufferView":24,
			"componentType":5126,
			"count":8,
			"max":[
				0.8014922142028809,
				1.13495671749115,
				0.9469717741012573
			],
			"min":[
				-0.6793138384819031,
				0.4934207499027252,
				0.6027226448059082
			],
			"type":"VEC3"
		},
		{
			"bufferView":25,
			"componentType":5126,
			"count":8,
			"type":"VEC3"
		},
		{
			"bufferView":26,
			"componentType":5126,
			"count":8,
			"type":"VEC2"
		},
		{
			"bufferView":27,
			"componentType":5123,
			"count":12,
			"type":"SCALAR"
		},
		{
			"bufferView":28,
			"componentType":5126,
			"count":240,
			"max":[
				0.5719553232192993,
				0.7687622904777527,
				0.014440381899476051
			],
			"min":[
				-0.585089385509491,
				-0.26242882013320923,
				-0.6573660373687744
			],
			"type":"VEC3"
		},
		{
			"bufferView":29,
			"componentType":5126,
			"count":240,
			"type":"VEC3"
		},
		{
			"bufferView":30,
			"componentType":5126,
			"count":240,
			"type":"VEC2"
		},
		{
			"bufferView":31,
			"componentType":5123,
			"count":360,
			"type":"SCALAR"
		}
	],
	"bufferViews":[
		{
			"buffer":0,
			"byteLength":10428,
			"byteOffset":0,
			"target":34962
		},
		{
			"buffer":0,
			"byteLength":10428,
			"byteOffset":10428,
			"target":34962
		},
		{
			"buffer":0,
			"byteLength":6952,
			"byteOffset":20856,
			"target":34962
		},
		{
			"buffer":0,
			"byteLength":3420,
			"byteOffset":27808,
			"target":34963
		},
		{
			"buffer":0,
			"byteLength":192,
			"byteOffset":31228,
			"target":34962
		},
		{
			"buffer":0,
			"byteLength":192,
			"byteOffset":31420,
			"target":34962
		},
		{
			"buffer":0,
			"byteLength":128,
			"byteOffset":31612,
			"target":34962
		},
		{
			"buffer":0,
			"byteLength":72,
			"byteOffset":31740,
			"target":34963
		},
		{
			"buffer":0,
			"byteLength":8976,
			"byteOffset":31812,
			"target":34962
		},
		{
			"buffer":0,
			"byteLength":8976,
			"byteOffset":40788,
			"target":34962
		},
		{
			"buffer":0,
			"byteLength":5984,
			"byteOffset":49764,
			"target":34962
		},
		{
			"buffer":0,
			"byteLength":2712,
			"byteOffset":55748,
			"target":34963
		},
		{
			"buffer":0,
			"byteLength":15000,
			"byteOffset":58460,
			"target":34962
		},
		{
			"buffer":0,
			"byteLength":15000,
			"byteOffset":73460,
			"target":34962
		},
		{
			"buffer":0,
			"byteLength":10000,
			"byteOffset":88460,
			"target":34962
		},
		{
			"buffer":0,
			"byteLength":4440,
			"byteOffset":98460,
			"target":34963
		},
		{
			"buffer":0,
			"byteLength":408,
			"byteOffset":102900,
			"target":34962
		},
		{
			"buffer":0,
			"byteLength":408,
			"byteOffset":103308,
			"target":34962
		},
		{
			"buffer":0,
			"byteLength":272,
			"byteOffset":103716,
			"target":34962
		},
		{
			"buffer":0,
			"byteLength":120,
			"byteOffset":103988,
			"target":34963
		},
		{
			"buffer":0,
			"byteLength":576,
			"byteOffset":104108,
			"target":34962
		},
		{
			"buffer":0,
			"byteLength":576,
			"byteOffset":104684,
			"target":34962
		},
		{
			"buffer":0,
			"byteLength":384,
			"byteOffset":105260,
			"target":34962
		},
		{
			"buffer":0,
			"byteLength":144,
			"byteOffset":105644,
			"target":34963
		},
		{
			"buffer":0,
			"byteLength":96,
			"byteOffset":105788,
			"target":34962
		},
		{
			"buffer":0,
			"byteLength":96,
			"byteOffset":105884,
			"target":34962
		},
		{
			"buffer":0,
			"byteLength":64,
			"byteOffset":105980,
			"target":34962
		},
		{
			"buffer":0,
			"byteLength":24,
			"byteOffset":106044,
			"target":34963
		},
		{
			"buffer":0,
			"byteLength":2880,
			"byteOffset":106068,
			"target":34962
		},
		{
			"buffer":0,
			"byteLength":2880,
			"byteOffset":108948,
			"target":34962
		},
		{
			"buffer":0,
			"byteLength":1920,
			"byteOffset":111828,
			"target":34962
		},
		{
			"buffer":0,
			"byteLength":720,
			"byteOffset":113748,
			"target":34963
		}
	],
	"buffers":[
		{
			"byteLength":114468,
			"uri":"jeep.bin"
		}
	]
}
