{
	"asset":{
		"generator":"Khronos glTF Blender I/O v4.0.44",
		"version":"2.0"
	},
	"extensionsUsed":[
		"KHR_materials_specular",
		"KHR_materials_ior"
	],
	"scene":0,
	"scenes":[
		{
			"name":"Scene",
			"nodes":[
				0
			]
		}
	],
	"nodes":[
		{
			"mesh":0,
			"name":"gun"
		}
	],
	"materials":[
		{
			"doubleSided":true,
			"extensions":{
				"KHR_materials_specular":{
					"specularFactor":0
				},
				"KHR_materials_ior":{
					"ior":1.4500000476837158
				}
			},
			"name":"mat13",
			"pbrMetallicRoughness":{
				"baseColorFactor":[
					1,
					0.33000001311302185,
					0,
					1
				],
				"metallicFactor":0
			}
		},
		{
			"doubleSided":true,
			"extensions":{
				"KHR_materials_specular":{
					"specularFactor":0
				},
				"KHR_materials_ior":{
					"ior":1.4500000476837158
				}
			},
			"name":"mat17",
			"pbrMetallicRoughness":{
				"baseColorFactor":[
					0.05999999865889549,
					0.10000000149011612,
					0.12999999523162842,
					1
				],
				"metallicFactor":0
			}
		},
		{
			"doubleSided":true,
			"extensions":{
				"KHR_materials_specular":{
					"specularFactor":0
				},
				"KHR_materials_ior":{
					"ior":1.4500000476837158
				}
			},
			"name":"mat15",
			"pbrMetallicRoughness":{
				"baseColorFactor":[
					0.6299999952316284,
					0.699999988079071,
					0.7200000286102295,
					1
				],
				"metallicFactor":0
			}
		},
		{
			"doubleSided":true,
			"extensions":{
				"KHR_materials_specular":{
					"specularFactor":0
				},
				"KHR_materials_ior":{
					"ior":1.4500000476837158
				}
			},
			"name":"mat23",
			"pbrMetallicRoughness":{
				"baseColorFactor":[
					0.009999999776482582,
					0.009999999776482582,
					0.009999999776482582,
					1
				],
				"metallicFactor":0
			}
		}
	],
	"meshes":[
		{
			"name":"group1679236059",
			"primitives":[
				{
					"attributes":{
						"POSITION":0,
						"NORMAL":1,
						"TEXCOORD_0":2
					},
					"indices":3,
					"material":0
				},
				{
					"attributes":{
						"POSITION":4,
						"NORMAL":5,
						"TEXCOORD_0":6
					},
					"indices":7,
					"material":1
				},
				{
					"attributes":{
						"POSITION":8,
						"NORMAL":9,
						"TEXCOORD_0":10
					},
					"indices":11,
					"material":2
				},
				{
					"attributes":{
						"POSITION":12,
						"NORMAL":13,
						"TEXCOORD_0":14
					},
					"indices":15,
					"material":3
				}
			]
		}
	],
	"accessors":[
		{
			"bufferView":0,
			"componentType":5126,
			"count":319,
			"max":[
				0.3619304597377777,
				0.5197780728340149,
				0.28544682264328003
			],
			"min":[
				-0.36026111245155334,
				-0.006797164678573608,
				-0.36332038044929504
			],
			"type":"VEC3"
		},
		{
			"bufferView":1,
			"componentType":5126,
			"count":319,
			"type":"VEC3"
		},
		{
			"bufferView":2,
			"componentType":5126,
			"count":319,
			"type":"VEC2"
		},
		{
			"bufferView":3,
			"componentType":5123,
			"count":492,
			"type":"SCALAR"
		},
		{
			"bufferView":4,
			"componentType":5126,
			"count":75,
			"max":[
				0.13946472108364105,
				0.4189568758010864,
				-0.20003260672092438
			],
			"min":[
				-0.14026114344596863,
				0.35813426971435547,
				-0.36332038044929504
			],
			"type":"VEC3"
		},
		{
			"bufferView":5,
			"componentType":5126,
			"count":75,
			"type":"VEC3"
		},
		{
			"bufferView":6,
			"componentType":5126,
			"count":75,
			"type":"VEC2"
		},
		{
			"bufferView":7,
			"componentType":5123,
			"count":120,
			"type":"SCALAR"
		},
		{
			"bufferView":8,
			"componentType":5126,
			"count":26,
			"max":[
				0.0698489099740982,
				0.409721314907074,
				1.159967064857483
			],
			"min":[
				-0.06950917094945908,
				0.318681538105011,
				0.27996721863746643
			],
			"type":"VEC3"
		},
		{
			"bufferView":9,
			"componentType":5126,
			"count":26,
			"type":"VEC3"
		},
		{
			"bufferView":10,
			"componentType":5126,
			"count":26,
			"type":"VEC2"
		},
		{
			"bufferView":11,
			"componentType":5123,
			"count":30,
			"type":"SCALAR"
		},
		{
			"bufferView":12,
			"componentType":5126,
			"count":4,
			"max":[
				0.03973844647407532,
				0.3986814022064209,
				1.159967064857483
			],
			"min":[
				-0.04026147723197937,
				0.318681538105011,
				1.159967064857483
			],
			"type":"VEC3"
		},
		{
			"bufferView":13,
			"componentType":5126,
			"count":4,
			"type":"VEC3"
		},
		{
			"bufferView":14,
			"componentType":5126,
			"count":4,
			"type":"VEC2"
		},
		{
			"bufferView":15,
			"componentType":5123,
			"count":6,
			"type":"SCALAR"
		}
	],
	"bufferViews":[
		{
			"buffer":0,
			"byteLength":3828,
			"byteOffset":0,
			"target":34962
		},
		{
			"buffer":0,
			"byteLength":3828,
			"byteOffset":3828,
			"target":34962
		},
		{
			"buffer":0,
			"byteLength":2552,
			"byteOffset":7656,
			"target":34962
		},
		{
			"buffer":0,
			"byteLength":984,
			"byteOffset":10208,
			"target":34963
		},
		{
			"buffer":0,
			"byteLength":900,
			"byteOffset":11192,
			"target":34962
		},
		{
			"buffer":0,
			"byteLength":900,
			"byteOffset":12092,
			"target":34962
		},
		{
			"buffer":0,
			"byteLength":600,
			"byteOffset":12992,
			"target":34962
		},
		{
			"buffer":0,
			"byteLength":240,
			"byteOffset":13592,
			"target":34963
		},
		{
			"buffer":0,
			"byteLength":312,
			"byteOffset":13832,
			"target":34962
		},
		{
			"buffer":0,
			"byteLength":312,
			"byteOffset":14144,
			"target":34962
		},
		{
			"buffer":0,
			"byteLength":208,
			"byteOffset":14456,
			"target":34962
		},
		{
			"buffer":0,
			"byteLength":60,
			"byteOffset":14664,
			"target":34963
		},
		{
			"buffer":0,
			"byteLength":48,
			"byteOffset":14724,
			"target":34962
		},
		{
			"buffer":0,
			"byteLength":48,
			"byteOffset":14772,
			"target":34962
		},
		{
			"buffer":0,
			"byteLength":32,
			"byteOffset":14820,
			"target":34962
		},
		{
			"buffer":0,
			"byteLength":12,
			"byteOffset":14852,
			"target":34963
		}
	],
	"buffers":[
		{
			"byteLength":14864,
			"uri":"cannon.bin"
		}
	]
}
