{
	"asset":{
		"generator":"Khronos glTF Blender I/O v4.0.44",
		"version":"2.0"
	},
	"scene":0,
	"scenes":[
		{
			"name":"Scene",
			"nodes":[
				0
			]
		}
	],
	"nodes":[
		{
			"mesh":0,
			"name":"Jeep",
			"rotation":[
				0,
				0.9999845623970032,
				0,
				0.0055554695427417755
			],
			"translation":[
				0,
				0.26999998092651367,
				0
			]
		}
	],
	"materials":[
		{
			"doubleSided":true,
			"name":"DarkGreen_Jeep.001",
			"pbrMetallicRoughness":{
				"baseColorFactor":[
					0.696253776550293,
					0,
					0.42290908098220825,
					1
				],
				"metallicFactor":0,
				"roughnessFactor":0.5
			}
		},
		{
			"doubleSided":true,
			"name":"White_Jeep.001",
			"pbrMetallicRoughness":{
				"baseColorFactor":[
					1,
					0.9202678203582764,
					0.8966922760009766,
					1
				],
				"metallicFactor":0,
				"roughnessFactor":0.5
			}
		},
		{
			"doubleSided":true,
			"name":"Black_Jeep.001",
			"pbrMetallicRoughness":{
				"metallicFactor":0,
				"roughnessFactor":0.5
			}
		},
		{
			"doubleSided":true,
			"name":"DarkBlue_Jeep.001",
			"pbrMetallicRoughness":{
				"baseColorFactor":[
					0.002194299129769206,
					0.18236075341701508,
					1,
					1
				],
				"metallicFactor":0,
				"roughnessFactor":0.5
			}
		},
		{
			"doubleSided":true,
			"name":"GasTank_Jeep.001",
			"pbrMetallicRoughness":{
				"baseColorFactor":[
					0.20863692462444305,
					0.010329825803637505,
					0.0027317421045154333,
					1
				],
				"metallicFactor":0,
				"roughnessFactor":0.5
			}
		},
		{
			"doubleSided":true,
			"name":"Orange_Jeep.001",
			"pbrMetallicRoughness":{
				"baseColorFactor":[
					0.5647115707397461,
					0.09305897355079651,
					0,
					1
				],
				"metallicFactor":0,
				"roughnessFactor":0.5
			}
		},
		{
			"doubleSided":true,
			"name":"Windows_Jeep.001",
			"pbrMetallicRoughness":{
				"baseColorFactor":[
					0.5332764983177185,
					0.8227859139442444,
					1,
					1
				],
				"metallicFactor":0,
				"roughnessFactor":0.5
			}
		},
		{
			"doubleSided":true,
			"name":"LightGreen_Jeep.001",
			"pbrMetallicRoughness":{
				"metallicFactor":0,
				"roughnessFactor":0.5
			}
		}
	],
	"meshes":[
		{
			"name":"Cube.002",
			"primitives":[
				{
					"attributes":{
						"POSITION":0,
						"NORMAL":1,
						"TEXCOORD_0":2
					},
					"indices":3,
					"material":0
				},
				{
					"attributes":{
						"POSITION":4,
						"NORMAL":5,
						"TEXCOORD_0":6
					},
					"indices":7,
					"material":1
				},
				{
					"attributes":{
						"POSITION":8,
						"NORMAL":9,
						"TEXCOORD_0":10
					},
					"indices":11,
					"material":2
				},
				{
					"attributes":{
						"POSITION":12,
						"NORMAL":13,
						"TEXCOORD_0":14
					},
					"indices":15,
					"material":3
				},
				{
					"attributes":{
						"POSITION":16,
						"NORMAL":17,
						"TEXCOORD_0":18
					},
					"indices":19,
					"material":4
				},
				{
					"attributes":{
						"POSITION":20,
						"NORMAL":21,
						"TEXCOORD_0":22
					},
					"indices":23,
					"material":5
				},
				{
					"attributes":{
						"POSITION":24,
						"NORMAL":25,
						"TEXCOORD_0":26
					},
					"indices":27,
					"material":6
				},
				{
					"attributes":{
						"POSITION":28,
						"NORMAL":29,
						"TEXCOORD_0":30
					},
					"indices":31,
					"material":7
				}
			]
		}
	],
	"accessors":[
		{
			"bufferView":0,
			"componentType":5126,
			"count":875,
			"max":[
				1.0189627408981323,
				1.5017895698547363,
				2.0483944416046143
			],
			"min":[
				-1.0473848581314087,
				-0.3586813509464264,
				-2.1921896934509277
			],
			"type":"VEC3"
		},
		{
			"bufferView":1,
			"componentType":5126,
			"count":875,
			"type":"VEC3"
		},
		{
			"bufferView":2,
			"componentType":5126,
			"count":875,
			"type":"VEC2"
		},
		{
			"bufferView":3,
			"componentType":5123,
			"count":1716,
			"type":"SCALAR"
		},
		{
			"bufferView":4,
			"componentType":5126,
			"count":16,
			"max":[
				0.5848503708839417,
				0.4667852818965912,
				1.947125792503357
			],
			"min":[
				-0.5738934278488159,
				0.2949724793434143,
				1.937813401222229
			],
			"type":"VEC3"
		},
		{
			"bufferView":5,
			"componentType":5126,
			"count":16,
			"type":"VEC3"
		},
		{
			"bufferView":6,
			"componentType":5126,
			"count":16,
			"type":"VEC2"
		},
		{
			"bufferView":7,
			"componentType":5123,
			"count":36,
			"type":"SCALAR"
		},
		{
			"bufferView":8,
			"componentType":5126,
			"count":655,
			"max":[
				0.8541086912155151,
				1.3706998825073242,
				1.960081696510315
			],
			"min":[
				-0.8586267828941345,
				-0.3618374764919281,
				-2.434288740158081
			],
			"type":"VEC3"
		},
		{
			"bufferView":9,
			"componentType":5126,
			"count":655,
			"type":"VEC3"
		},
		{
			"bufferView":10,
			"componentType":5126,
			"count":655,
			"type":"VEC2"
		},
		{
			"bufferView":11,
			"componentType":5123,
			"count":1140,
			"type":"SCALAR"
		},
		{
			"bufferView":12,
			"componentType":5126,
			"count":250,
			"max":[
				0.21528956294059753,
				0.8933559060096741,
				-2.1823737621307373
			],
			"min":[
				-0.7592645287513733,
				-0.03137093782424927,
				-2.5156075954437256
			],
			"type":"VEC3"
		},
		{
			"bufferView":13,
			"componentType":5126,
			"count":250,
			"type":"VEC3"
		},
		{
			"bufferView":14,
			"componentType":5126,
			"count":250,
			"type":"VEC2"
		},
		{
			"bufferView":15,
			"componentType":5123,
			"count":444,
			"type":"SCALAR"
		},
		{
			"bufferView":16,
			"componentType":5126,
			"count":34,
			"max":[
				0.6003223061561584,
				0.6228743195533752,
				-2.167783498764038
			],
			"min":[
				0.23880229890346527,
				0.11403419077396393,
				-2.3041763305664062
			],
			"type":"VEC3"
		},
		{
			"bufferView":17,
			"componentType":5126,
			"count":34,
			"type":"VEC3"
		},
		{
			"bufferView":18,
			"componentType":5126,
			"count":34,
			"type":"VEC2"
		},
		{
			"bufferView":19,
			"componentType":5123,
			"count":60,
			"type":"SCALAR"
		},
		{
			"bufferView":20,
			"componentType":5126,
			"count":48,
			"max":[
				0.9551952481269836,
				0.24411049485206604,
				-2.073862314224243
			],
			"min":[
				-1.0013926029205322,
				-0.08479133248329163,
				-2.2150843143463135
			],
			"type":"VEC3"
		},
		{
			"bufferView":21,
			"componentType":5126,
			"count":48,
			"type":"VEC3"
		},
		{
			"bufferView":22,
			"componentType":5126,
			"count":48,
			"type":"VEC2"
		},
		{
			"bufferView":23,
			"componentType":5123,
			"count":72,
			"type":"SCALAR"
		},
		{
			"bufferView":24,
			"componentType":5126,
			"count":8,
			"max":[
				0.7469498515129089,
				1.2990057468414307,
				0.652890145778656
			],
			"min":[
				-0.7365753054618835,
				0.6574698090553284,
				0.29675158858299255
			],
			"type":"VEC3"
		},
		{
			"bufferView":25,
			"componentType":5126,
			"count":8,
			"type":"VEC3"
		},
		{
			"bufferView":26,
			"componentType":5126,
			"count":8,
			"type":"VEC2"
		},
		{
			"bufferView":27,
			"componentType":5123,
			"count":12,
			"type":"SCALAR"
		},
		{
			"bufferView":28,
			"componentType":5126,
			"count":240,
			"max":[
				0.5068475008010864,
				0.9328113198280334,
				-0.2812418043613434
			],
			"min":[
				-0.6520870327949524,
				-0.09837976098060608,
				-0.9603098034858704
			],
			"type":"VEC3"
		},
		{
			"bufferView":29,
			"componentType":5126,
			"count":240,
			"type":"VEC3"
		},
		{
			"bufferView":30,
			"componentType":5126,
			"count":240,
			"type":"VEC2"
		},
		{
			"bufferView":31,
			"componentType":5123,
			"count":360,
			"type":"SCALAR"
		}
	],
	"bufferViews":[
		{
			"buffer":0,
			"byteLength":10500,
			"byteOffset":0,
			"target":34962
		},
		{
			"buffer":0,
			"byteLength":10500,
			"byteOffset":10500,
			"target":34962
		},
		{
			"buffer":0,
			"byteLength":7000,
			"byteOffset":21000,
			"target":34962
		},
		{
			"buffer":0,
			"byteLength":3432,
			"byteOffset":28000,
			"target":34963
		},
		{
			"buffer":0,
			"byteLength":192,
			"byteOffset":31432,
			"target":34962
		},
		{
			"buffer":0,
			"byteLength":192,
			"byteOffset":31624,
			"target":34962
		},
		{
			"buffer":0,
			"byteLength":128,
			"byteOffset":31816,
			"target":34962
		},
		{
			"buffer":0,
			"byteLength":72,
			"byteOffset":31944,
			"target":34963
		},
		{
			"buffer":0,
			"byteLength":7860,
			"byteOffset":32016,
			"target":34962
		},
		{
			"buffer":0,
			"byteLength":7860,
			"byteOffset":39876,
			"target":34962
		},
		{
			"buffer":0,
			"byteLength":5240,
			"byteOffset":47736,
			"target":34962
		},
		{
			"buffer":0,
			"byteLength":2280,
			"byteOffset":52976,
			"target":34963
		},
		{
			"buffer":0,
			"byteLength":3000,
			"byteOffset":55256,
			"target":34962
		},
		{
			"buffer":0,
			"byteLength":3000,
			"byteOffset":58256,
			"target":34962
		},
		{
			"buffer":0,
			"byteLength":2000,
			"byteOffset":61256,
			"target":34962
		},
		{
			"buffer":0,
			"byteLength":888,
			"byteOffset":63256,
			"target":34963
		},
		{
			"buffer":0,
			"byteLength":408,
			"byteOffset":64144,
			"target":34962
		},
		{
			"buffer":0,
			"byteLength":408,
			"byteOffset":64552,
			"target":34962
		},
		{
			"buffer":0,
			"byteLength":272,
			"byteOffset":64960,
			"target":34962
		},
		{
			"buffer":0,
			"byteLength":120,
			"byteOffset":65232,
			"target":34963
		},
		{
			"buffer":0,
			"byteLength":576,
			"byteOffset":65352,
			"target":34962
		},
		{
			"buffer":0,
			"byteLength":576,
			"byteOffset":65928,
			"target":34962
		},
		{
			"buffer":0,
			"byteLength":384,
			"byteOffset":66504,
			"target":34962
		},
		{
			"buffer":0,
			"byteLength":144,
			"byteOffset":66888,
			"target":34963
		},
		{
			"buffer":0,
			"byteLength":96,
			"byteOffset":67032,
			"target":34962
		},
		{
			"buffer":0,
			"byteLength":96,
			"byteOffset":67128,
			"target":34962
		},
		{
			"buffer":0,
			"byteLength":64,
			"byteOffset":67224,
			"target":34962
		},
		{
			"buffer":0,
			"byteLength":24,
			"byteOffset":67288,
			"target":34963
		},
		{
			"buffer":0,
			"byteLength":2880,
			"byteOffset":67312,
			"target":34962
		},
		{
			"buffer":0,
			"byteLength":2880,
			"byteOffset":70192,
			"target":34962
		},
		{
			"buffer":0,
			"byteLength":1920,
			"byteOffset":73072,
			"target":34962
		},
		{
			"buffer":0,
			"byteLength":720,
			"byteOffset":74992,
			"target":34963
		}
	],
	"buffers":[
		{
			"byteLength":75712,
			"uri":"jeep.bin"
		}
	]
}
