{
	"asset":{
		"generator":"Khronos glTF Blender I/O v4.0.44",
		"version":"2.0"
	},
	"scene":0,
	"scenes":[
		{
			"name":"Scene",
			"nodes":[
				0
			]
		}
	],
	"nodes":[
		{
			"mesh":0,
			"name":"Rock_1_",
			"rotation":[
				0,
				-0.7997953295707703,
				0,
				0.6002727746963501
			],
			"scale":[
				0.2840808629989624,
				0.43807676434516907,
				0.2840808629989624
			],
			"translation":[
				-0.0029306411743164062,
				0.0001263245940208435,
				-0.00040018558502197266
			]
		}
	],
	"materials":[
		{
			"doubleSided":true,
			"name":"Rock_1_",
			"pbrMetallicRoughness":{}
		}
	],
	"meshes":[
		{
			"name":"Cube.005",
			"primitives":[
				{
					"attributes":{
						"POSITION":0,
						"NORMAL":1,
						"TEXCOORD_0":2
					},
					"indices":3,
					"material":0
				}
			]
		}
	],
	"accessors":[
		{
			"bufferView":0,
			"componentType":5126,
			"count":3171,
			"max":[
				2.6897194385528564,
				3.701368808746338,
				4.085606098175049
			],
			"min":[
				-2.7029402256011963,
				-2.276897430419922e-05,
				-4.7025628089904785
			],
			"type":"VEC3"
		},
		{
			"bufferView":1,
			"componentType":5126,
			"count":3171,
			"type":"VEC3"
		},
		{
			"bufferView":2,
			"componentType":5126,
			"count":3171,
			"type":"VEC2"
		},
		{
			"bufferView":3,
			"componentType":5123,
			"count":3363,
			"type":"SCALAR"
		}
	],
	"bufferViews":[
		{
			"buffer":0,
			"byteLength":38052,
			"byteOffset":0,
			"target":34962
		},
		{
			"buffer":0,
			"byteLength":38052,
			"byteOffset":38052,
			"target":34962
		},
		{
			"buffer":0,
			"byteLength":25368,
			"byteOffset":76104,
			"target":34962
		},
		{
			"buffer":0,
			"byteLength":6726,
			"byteOffset":101472,
			"target":34963
		}
	],
	"buffers":[
		{
			"byteLength":108200,
			"uri":"rock.bin"
		}
	]
}
