{
  "asset":{
    "generator":"Khronos glTF Blender I/O v4.0.44",
    "version":"2.0"
  },
  "scene":0,
  "scenes":[
    {
      "name":"Scene",
      "nodes":[
        0
      ]
    }
  ],
  "nodes":[
    {
      "mesh":0,
      "name":"tree2",
      "rotation":[
        0,
        -0.7071068286895752,
        0,
        0.7071067690849304
      ],
      "scale":[
        0.08862382918596268,
        0.08862382918596268,
        0.08862382918596268
      ],
      "translation":[
        0.00032913312315940857,
        -5.577504634857178e-05,
        -0.0008474811911582947
      ]
    }
  ],
  "materials":[
    {
      "doubleSided":true,
      "name":"tree2",
      "pbrMetallicRoughness":{}
    }
  ],
  "meshes":[
    {
      "name":"Cylinder.004",
      "primitives":[
        {
          "attributes":{
            "POSITION":0,
            "NORMAL":1,
            "TEXCOORD_0":2
          },
          "indices":3,
          "material":0
        }
      ]
    }
  ],
  "accessors":[
    {
      "bufferView":0,
      "componentType":5126,
      "count":1240,
      "max":[
        6.147891998291016,
        23.19962501525879,
        5.337319850921631
      ],
      "min":[
        -5.965619087219238,
        -0.07885915040969849,
        -6.917874336242676
      ],
      "type":"VEC3"
    },
    {
      "bufferView":1,
      "componentType":5126,
      "count":1240,
      "type":"VEC3"
    },
    {
      "bufferView":2,
      "componentType":5126,
      "count":1240,
      "type":"VEC2"
    },
    {
      "bufferView":3,
      "componentType":5123,
      "count":2046,
      "type":"SCALAR"
    }
  ],
  "bufferViews":[
    {
      "buffer":0,
      "byteLength":14880,
      "byteOffset":0,
      "target":34962
    },
    {
      "buffer":0,
      "byteLength":14880,
      "byteOffset":14880,
      "target":34962
    },
    {
      "buffer":0,
      "byteLength":9920,
      "byteOffset":29760,
      "target":34962
    },
    {
      "buffer":0,
      "byteLength":4092,
      "byteOffset":39680,
      "target":34963
    }
  ],
  "buffers":[
    {
      "byteLength":43772,
      "uri":"tree2.bin"
    }
  ]
}
