{
	"asset":{
		"generator":"Khronos glTF Blender I/O v4.0.44",
		"version":"2.0"
	},
	"scene":0,
	"scenes":[
		{
			"name":"Scene",
			"nodes":[
				0
			]
		}
	],
	"nodes":[
		{
			"mesh":0,
			"name":"tree1"
		}
	],
	"materials":[
		{
			"doubleSided":true,
			"name":"tree1.001",
			"pbrMetallicRoughness":{
				"metallicFactor":0,
				"roughnessFactor":0.5
			}
		}
	],
	"meshes":[
		{
			"name":"Cube.001",
			"primitives":[
				{
					"attributes":{
						"POSITION":0,
						"NORMAL":1,
						"TEXCOORD_0":2
					},
					"indices":3,
					"material":0
				}
			]
		}
	],
	"accessors":[
		{
			"bufferView":0,
			"componentType":5126,
			"count":3803,
			"max":[
				5.801621437072754,
				19.409507751464844,
				8.59073257446289
			],
			"min":[
				-7.120365619659424,
				0.12545964121818542,
				-3.3075451850891113
			],
			"type":"VEC3"
		},
		{
			"bufferView":1,
			"componentType":5126,
			"count":3803,
			"type":"VEC3"
		},
		{
			"bufferView":2,
			"componentType":5126,
			"count":3803,
			"type":"VEC2"
		},
		{
			"bufferView":3,
			"componentType":5123,
			"count":4485,
			"type":"SCALAR"
		}
	],
	"bufferViews":[
		{
			"buffer":0,
			"byteLength":45636,
			"byteOffset":0,
			"target":34962
		},
		{
			"buffer":0,
			"byteLength":45636,
			"byteOffset":45636,
			"target":34962
		},
		{
			"buffer":0,
			"byteLength":30424,
			"byteOffset":91272,
			"target":34962
		},
		{
			"buffer":0,
			"byteLength":8970,
			"byteOffset":121696,
			"target":34963
		}
	],
	"buffers":[
		{
			"byteLength":130668,
			"uri":"tree1.bin"
		}
	]
}
