{
	"asset":{
		"generator":"Khronos glTF Blender I/O v4.0.44",
		"version":"2.0"
	},
	"scene":0,
	"scenes":[
		{
			"name":"Scene",
			"nodes":[
				0
			]
		}
	],
	"nodes":[
		{
			"mesh":0,
			"name":"tree2"
		}
	],
	"materials":[
		{
			"doubleSided":true,
			"name":"tree2.001",
			"pbrMetallicRoughness":{}
		}
	],
	"meshes":[
		{
			"name":"Cylinder.001",
			"primitives":[
				{
					"attributes":{
						"POSITION":0,
						"NORMAL":1,
						"TEXCOORD_0":2
					},
					"indices":3,
					"material":0
				}
			]
		}
	],
	"accessors":[
		{
			"bufferView":0,
			"componentType":5126,
			"count":1290,
			"max":[
				6.147891998291016,
				23.19962501525879,
				5.337319850921631
			],
			"min":[
				-5.965619087219238,
				-0.07885915040969849,
				-6.917874336242676
			],
			"type":"VEC3"
		},
		{
			"bufferView":1,
			"componentType":5126,
			"count":1290,
			"type":"VEC3"
		},
		{
			"bufferView":2,
			"componentType":5126,
			"count":1290,
			"type":"VEC2"
		},
		{
			"bufferView":3,
			"componentType":5123,
			"count":2046,
			"type":"SCALAR"
		}
	],
	"bufferViews":[
		{
			"buffer":0,
			"byteLength":15480,
			"byteOffset":0,
			"target":34962
		},
		{
			"buffer":0,
			"byteLength":15480,
			"byteOffset":15480,
			"target":34962
		},
		{
			"buffer":0,
			"byteLength":10320,
			"byteOffset":30960,
			"target":34962
		},
		{
			"buffer":0,
			"byteLength":4092,
			"byteOffset":41280,
			"target":34963
		}
	],
	"buffers":[
		{
			"byteLength":45372,
			"uri":"tree2.bin"
		}
	]
}
