{
	"asset":{
		"generator":"Khronos glTF Blender I/O v4.0.44",
		"version":"2.0"
	},
	"extensionsUsed":[
		"KHR_materials_specular",
		"KHR_materials_ior"
	],
	"scene":0,
	"scenes":[
		{
			"name":"Scene",
			"nodes":[
				0
			]
		}
	],
	"nodes":[
		{
			"mesh":0,
			"name":"gun"
		}
	],
	"materials":[
		{
			"doubleSided":true,
			"extensions":{
				"KHR_materials_specular":{
					"specularFactor":0
				},
				"KHR_materials_ior":{
					"ior":1.4500000476837158
				}
			},
			"name":"mat13",
			"pbrMetallicRoughness":{
				"baseColorFactor":[
					1,
					0.33000001311302185,
					0,
					1
				],
				"metallicFactor":0
			}
		},
		{
			"doubleSided":true,
			"extensions":{
				"KHR_materials_specular":{
					"specularFactor":0
				},
				"KHR_materials_ior":{
					"ior":1.4500000476837158
				}
			},
			"name":"mat17",
			"pbrMetallicRoughness":{
				"baseColorFactor":[
					0.05999999865889549,
					0.10000000149011612,
					0.12999999523162842,
					1
				],
				"metallicFactor":0
			}
		},
		{
			"doubleSided":true,
			"extensions":{
				"KHR_materials_specular":{
					"specularFactor":0
				},
				"KHR_materials_ior":{
					"ior":1.4500000476837158
				}
			},
			"name":"mat22",
			"pbrMetallicRoughness":{
				"baseColorFactor":[
					0.3499999940395355,
					0.3499999940395355,
					0.3499999940395355,
					1
				],
				"metallicFactor":0
			}
		},
		{
			"doubleSided":true,
			"extensions":{
				"KHR_materials_specular":{
					"specularFactor":0
				},
				"KHR_materials_ior":{
					"ior":1.4500000476837158
				}
			},
			"name":"mat15",
			"pbrMetallicRoughness":{
				"baseColorFactor":[
					0.6299999952316284,
					0.699999988079071,
					0.7200000286102295,
					1
				],
				"metallicFactor":0
			}
		},
		{
			"doubleSided":true,
			"extensions":{
				"KHR_materials_specular":{
					"specularFactor":0
				},
				"KHR_materials_ior":{
					"ior":1.4500000476837158
				}
			},
			"name":"mat23",
			"pbrMetallicRoughness":{
				"baseColorFactor":[
					0.009999999776482582,
					0.009999999776482582,
					0.009999999776482582,
					1
				],
				"metallicFactor":0
			}
		}
	],
	"meshes":[
		{
			"name":"group1679236059",
			"primitives":[
				{
					"attributes":{
						"POSITION":0,
						"NORMAL":1,
						"TEXCOORD_0":2
					},
					"indices":3,
					"material":0
				},
				{
					"attributes":{
						"POSITION":4,
						"NORMAL":5,
						"TEXCOORD_0":6
					},
					"indices":7,
					"material":1
				},
				{
					"attributes":{
						"POSITION":8,
						"NORMAL":9,
						"TEXCOORD_0":10
					},
					"indices":11,
					"material":2
				},
				{
					"attributes":{
						"POSITION":12,
						"NORMAL":13,
						"TEXCOORD_0":14
					},
					"indices":15,
					"material":3
				},
				{
					"attributes":{
						"POSITION":16,
						"NORMAL":17,
						"TEXCOORD_0":18
					},
					"indices":19,
					"material":4
				}
			]
		}
	],
	"accessors":[
		{
			"bufferView":0,
			"componentType":5126,
			"count":312,
			"max":[
				0.3619304597377777,
				0.5197780728340149,
				0.28544682264328003
			],
			"min":[
				-0.36026111245155334,
				-0.006797164678573608,
				-0.36332038044929504
			],
			"type":"VEC3"
		},
		{
			"bufferView":1,
			"componentType":5126,
			"count":312,
			"type":"VEC3"
		},
		{
			"bufferView":2,
			"componentType":5126,
			"count":312,
			"type":"VEC2"
		},
		{
			"bufferView":3,
			"componentType":5123,
			"count":495,
			"type":"SCALAR"
		},
		{
			"bufferView":4,
			"componentType":5126,
			"count":75,
			"max":[
				0.13946472108364105,
				0.4189568758010864,
				-0.20003260672092438
			],
			"min":[
				-0.14026114344596863,
				0.35813426971435547,
				-0.36332038044929504
			],
			"type":"VEC3"
		},
		{
			"bufferView":5,
			"componentType":5126,
			"count":75,
			"type":"VEC3"
		},
		{
			"bufferView":6,
			"componentType":5126,
			"count":75,
			"type":"VEC2"
		},
		{
			"bufferView":7,
			"componentType":5123,
			"count":120,
			"type":"SCALAR"
		},
		{
			"bufferView":8,
			"componentType":5126,
			"count":384,
			"max":[
				0.25973907113075256,
				0.2986820638179779,
				-0.13003350794315338
			],
			"min":[
				-0.2802613377571106,
				0.018682047724723816,
				-0.3900335729122162
			],
			"type":"VEC3"
		},
		{
			"bufferView":9,
			"componentType":5126,
			"count":384,
			"type":"VEC3"
		},
		{
			"bufferView":10,
			"componentType":5126,
			"count":384,
			"type":"VEC2"
		},
		{
			"bufferView":11,
			"componentType":5123,
			"count":576,
			"type":"SCALAR"
		},
		{
			"bufferView":12,
			"componentType":5126,
			"count":40,
			"max":[
				0.23973852396011353,
				0.3986818194389343,
				1.159967064857483
			],
			"min":[
				-0.24026162922382355,
				0.318681538105011,
				0.25996696949005127
			],
			"type":"VEC3"
		},
		{
			"bufferView":13,
			"componentType":5126,
			"count":40,
			"type":"VEC3"
		},
		{
			"bufferView":14,
			"componentType":5126,
			"count":40,
			"type":"VEC2"
		},
		{
			"bufferView":15,
			"componentType":5123,
			"count":60,
			"type":"SCALAR"
		},
		{
			"bufferView":16,
			"componentType":5126,
			"count":8,
			"max":[
				0.23973803222179413,
				0.3986814022064209,
				1.159967064857483
			],
			"min":[
				-0.2402615249156952,
				0.318681538105011,
				1.159967064857483
			],
			"type":"VEC3"
		},
		{
			"bufferView":17,
			"componentType":5126,
			"count":8,
			"type":"VEC3"
		},
		{
			"bufferView":18,
			"componentType":5126,
			"count":8,
			"type":"VEC2"
		},
		{
			"bufferView":19,
			"componentType":5123,
			"count":12,
			"type":"SCALAR"
		}
	],
	"bufferViews":[
		{
			"buffer":0,
			"byteLength":3744,
			"byteOffset":0,
			"target":34962
		},
		{
			"buffer":0,
			"byteLength":3744,
			"byteOffset":3744,
			"target":34962
		},
		{
			"buffer":0,
			"byteLength":2496,
			"byteOffset":7488,
			"target":34962
		},
		{
			"buffer":0,
			"byteLength":990,
			"byteOffset":9984,
			"target":34963
		},
		{
			"buffer":0,
			"byteLength":900,
			"byteOffset":10976,
			"target":34962
		},
		{
			"buffer":0,
			"byteLength":900,
			"byteOffset":11876,
			"target":34962
		},
		{
			"buffer":0,
			"byteLength":600,
			"byteOffset":12776,
			"target":34962
		},
		{
			"buffer":0,
			"byteLength":240,
			"byteOffset":13376,
			"target":34963
		},
		{
			"buffer":0,
			"byteLength":4608,
			"byteOffset":13616,
			"target":34962
		},
		{
			"buffer":0,
			"byteLength":4608,
			"byteOffset":18224,
			"target":34962
		},
		{
			"buffer":0,
			"byteLength":3072,
			"byteOffset":22832,
			"target":34962
		},
		{
			"buffer":0,
			"byteLength":1152,
			"byteOffset":25904,
			"target":34963
		},
		{
			"buffer":0,
			"byteLength":480,
			"byteOffset":27056,
			"target":34962
		},
		{
			"buffer":0,
			"byteLength":480,
			"byteOffset":27536,
			"target":34962
		},
		{
			"buffer":0,
			"byteLength":320,
			"byteOffset":28016,
			"target":34962
		},
		{
			"buffer":0,
			"byteLength":120,
			"byteOffset":28336,
			"target":34963
		},
		{
			"buffer":0,
			"byteLength":96,
			"byteOffset":28456,
			"target":34962
		},
		{
			"buffer":0,
			"byteLength":96,
			"byteOffset":28552,
			"target":34962
		},
		{
			"buffer":0,
			"byteLength":64,
			"byteOffset":28648,
			"target":34962
		},
		{
			"buffer":0,
			"byteLength":24,
			"byteOffset":28712,
			"target":34963
		}
	],
	"buffers":[
		{
			"byteLength":28736,
			"uri":"turret.bin"
		}
	]
}
