{
	"asset":{
		"generator":"Khronos glTF Blender I/O v4.0.44",
		"version":"2.0"
	},
	"scene":0,
	"scenes":[
		{
			"name":"Scene",
			"nodes":[
				0
			]
		}
	],
	"nodes":[
		{
			"mesh":0,
			"name":"Jeep"
		}
	],
	"materials":[
		{
			"doubleSided":true,
			"name":"Black_Jeep.003",
			"pbrMetallicRoughness":{
				"metallicFactor":0,
				"roughnessFactor":0.5
			}
		},
		{
			"doubleSided":true,
			"name":"DarkBlue_Jeep.004",
			"pbrMetallicRoughness":{
				"baseColorFactor":[
					0.002194299129769206,
					0.18236075341701508,
					1,
					1
				],
				"metallicFactor":0,
				"roughnessFactor":0.5
			}
		}
	],
	"meshes":[
		{
			"name":"Cube.005",
			"primitives":[
				{
					"attributes":{
						"POSITION":0,
						"NORMAL":1,
						"TEXCOORD_0":2
					},
					"indices":3,
					"material":0
				},
				{
					"attributes":{
						"POSITION":4,
						"NORMAL":5,
						"TEXCOORD_0":6
					},
					"indices":7,
					"material":1
				}
			]
		}
	],
	"accessors":[
		{
			"bufferView":0,
			"componentType":5126,
			"count":20,
			"max":[
				0.08379808068275452,
				0.19558177888393402,
				0.20477202534675598
			],
			"min":[
				-0.08350923657417297,
				-0.19436337053775787,
				-0.20524057745933533
			],
			"type":"VEC3"
		},
		{
			"bufferView":1,
			"componentType":5126,
			"count":20,
			"type":"VEC3"
		},
		{
			"bufferView":2,
			"componentType":5126,
			"count":20,
			"type":"VEC2"
		},
		{
			"bufferView":3,
			"componentType":5123,
			"count":48,
			"type":"SCALAR"
		},
		{
			"bufferView":4,
			"componentType":5126,
			"count":240,
			"max":[
				0.1634151041507721,
				0.46297261118888855,
				0.48592355847358704
			],
			"min":[
				-0.16312620043754578,
				-0.46175417304039,
				-0.4863918721675873
			],
			"type":"VEC3"
		},
		{
			"bufferView":5,
			"componentType":5126,
			"count":240,
			"type":"VEC3"
		},
		{
			"bufferView":6,
			"componentType":5126,
			"count":240,
			"type":"VEC2"
		},
		{
			"bufferView":7,
			"componentType":5123,
			"count":420,
			"type":"SCALAR"
		}
	],
	"bufferViews":[
		{
			"buffer":0,
			"byteLength":240,
			"byteOffset":0,
			"target":34962
		},
		{
			"buffer":0,
			"byteLength":240,
			"byteOffset":240,
			"target":34962
		},
		{
			"buffer":0,
			"byteLength":160,
			"byteOffset":480,
			"target":34962
		},
		{
			"buffer":0,
			"byteLength":96,
			"byteOffset":640,
			"target":34963
		},
		{
			"buffer":0,
			"byteLength":2880,
			"byteOffset":736,
			"target":34962
		},
		{
			"buffer":0,
			"byteLength":2880,
			"byteOffset":3616,
			"target":34962
		},
		{
			"buffer":0,
			"byteLength":1920,
			"byteOffset":6496,
			"target":34962
		},
		{
			"buffer":0,
			"byteLength":840,
			"byteOffset":8416,
			"target":34963
		}
	],
	"buffers":[
		{
			"byteLength":9256,
			"uri":"wheel.bin"
		}
	]
}
